<svg width="132" height="40" viewBox="0 0 132 40" fill="none" xmlns="http://www.w3.org/2000/svg">
<path d="M9.17495 26.3L8.92495 25.45L7.19995 19.7L5.87495 24.175C7.20828 25.4083 8.30828 26.1167 9.17495 26.3ZM2.32495 26.325L1.19995 25.1C1.96662 24.05 2.86662 23.45 3.89995 23.3L5.67495 17.725C5.80828 17.3083 5.87495 16.9917 5.87495 16.775C5.87495 16.1417 5.73328 15.75 5.44995 15.6H9.17495C8.85828 15.75 8.69995 16.1167 8.69995 16.7C8.69995 16.9 8.74995 17.1583 8.84995 17.475L11.6 26C11.8833 25.8667 12.3416 25.625 12.975 25.275C12.6083 25.9583 12.2416 26.4917 11.875 26.875L12.875 29.95C13.0416 30.4667 13.1333 30.7333 13.15 30.75C13.25 31 13.4083 31.225 13.625 31.425L14.35 31.85H9.32495L9.94995 31.425C10.3 31.3417 10.475 31.0917 10.475 30.675C10.475 30.575 10.4166 30.3333 10.3 29.95L9.64995 27.825C8.61662 27.6083 7.25828 26.7 5.57495 25.1L5.47495 25.45L3.54995 31.425C3.44995 31.7417 3.39995 31.9917 3.39995 32.175C3.39995 32.4583 3.64162 32.7 4.12495 32.9L3.09995 32.95H1.44995L0.199951 32.9C0.599951 32.7667 0.849951 32.6167 0.949951 32.45C0.999951 32.3667 1.09995 32.0917 1.24995 31.625L3.59995 24.3C2.88328 24.35 2.25828 24.6583 1.72495 25.225L2.32495 26.325Z" fill="white"/>
<path d="M15.408 1.676C18.0174 1.92933 21.07 2.056 24.566 2.056C28.9487 2.056 32.736 1.866 35.928 1.486L37.334 8.288C36.954 7.65466 36.3967 7.12267 35.662 6.692C34.9274 6.236 34.2054 6.008 33.496 6.008L28.632 6.084L28.708 24.59L27.264 22.386L27.112 22.082L27.34 32L26.124 30.1L25.288 39.22L22.552 23.526L23.92 24.438L22.476 15.014L24.376 15.85L23.198 6.122L18.144 6.198C16.852 6.046 15.5727 6.66666 14.306 8.06L15.408 1.676Z" fill="white"/>
<path d="M55.2978 25.84C55.4578 26.5333 54.6711 27.5867 52.9378 29C50.8311 30.7067 48.7911 31.7067 46.8178 32L45.6178 31.8C44.4178 30.8133 43.2578 29.8267 42.1378 28.84C40.1111 27.0533 38.9778 25.64 38.7378 24.6C38.6578 22.76 38.6178 20.84 38.6178 18.84C38.6178 15.4267 38.7245 11.7867 38.9378 7.92C42.0578 5.54666 45.2978 3.73333 48.6578 2.48H49.6578L53.2178 6.92C54.2311 7.96 54.8178 10.12 54.9778 13.4C55.0578 15.0533 55.1645 19.2 55.2978 25.84ZM50.4178 27.56L50.2578 15.96C50.2045 12.2267 49.5511 8.69333 48.2978 5.36C47.5511 5.68 46.5378 6.16 45.2578 6.8C44.5378 7.28 44.0711 7.89333 43.8578 8.64L43.7778 26.76C43.9378 27.2133 44.3778 27.76 45.0978 28.4C45.7378 28.9867 46.3111 29.4 46.8178 29.64C48.8178 29 50.0178 28.3067 50.4178 27.56Z" fill="white"/>
<path d="M74.79 25.84C74.95 26.5333 74.1633 27.5867 72.43 29C70.3233 30.7067 68.2833 31.7067 66.31 32L65.11 31.8C63.91 30.8133 62.75 29.8267 61.63 28.84C59.6033 27.0533 58.47 25.64 58.23 24.6C58.15 22.76 58.11 21.3733 58.11 20.44C58.11 17.0267 58.2167 13.3867 58.43 9.52C61.55 7.14667 64.79 5.33333 68.15 4.08H69.15L72.71 8.52C73.1367 8.94667 73.4833 9.57333 73.75 10.4L68.19 14.68C68.8833 13.7467 69.23 12.9333 69.23 12.24C69.23 12.0533 69.2033 11.8667 69.15 11.68C69.1767 11.5733 69.19 11.4533 69.19 11.32C69.19 10.8933 68.7233 9.44 67.79 6.96C67.0433 7.28 66.03 7.76 64.75 8.4C64.03 8.88 63.5633 9.49333 63.35 10.24L63.27 26.76C63.43 27.2133 63.87 27.76 64.59 28.4C65.23 28.9867 65.8033 29.4 66.31 29.64C68.31 29 69.51 28.3067 69.91 27.56L69.87 23.76L74.71 24.8L74.79 25.84Z" fill="white"/>
<path d="M89.3622 22.88L88.9622 21.52L86.2022 12.32L84.0822 19.48C86.2155 21.4533 87.9755 22.5867 89.3622 22.88ZM78.4022 22.92L76.6022 20.96C77.8288 19.28 79.2688 18.32 80.9222 18.08L83.7622 9.16C83.9755 8.49333 84.0822 7.98667 84.0822 7.64C84.0822 6.62667 83.8555 6 83.4022 5.76H89.3622C88.8555 6 88.6022 6.58667 88.6022 7.52C88.6022 7.84 88.6822 8.25333 88.8422 8.76L93.2422 22.4C93.6955 22.1867 94.4288 21.8 95.4422 21.24C94.8555 22.3333 94.2688 23.1867 93.6822 23.8L95.2822 28.72C95.5488 29.5467 95.6955 29.9733 95.7222 30C95.8822 30.4 96.1355 30.76 96.4822 31.08L97.6422 31.76H89.6022L90.6022 31.08C91.1622 30.9467 91.4422 30.5467 91.4422 29.88C91.4422 29.72 91.3488 29.3333 91.1622 28.72L90.1222 25.32C88.4688 24.9733 86.2955 23.52 83.6022 20.96L83.4422 21.52L80.3622 31.08C80.2022 31.5867 80.1222 31.9867 80.1222 32.28C80.1222 32.7333 80.5088 33.12 81.2822 33.44L79.6422 33.52H77.0022L75.0022 33.44C75.6422 33.2267 76.0422 32.9867 76.2022 32.72C76.2822 32.5867 76.4422 32.1467 76.6822 31.4L80.4422 19.68C79.2955 19.76 78.2955 20.2533 77.4422 21.16L78.4022 22.92Z" fill="white"/>
<path d="M107.795 30.3261H126.205L127.227 31.6615H106.773L107.795 30.3261ZM125.308 19.2034L123.905 20.1193L122.843 19.0791L124.777 17.8165L125.308 19.2034ZM117.409 18.4413L114.827 16.5451L113.525 13.5694L116.61 14.8645L120.571 18.7425L116.51 20.3994L117.482 19.4474C117.551 19.3797 117.604 19.2983 117.639 19.2087C117.673 19.1191 117.687 19.0233 117.68 18.9279C117.673 18.8326 117.645 18.7397 117.598 18.6558C117.552 18.5718 117.487 18.4987 117.409 18.4413ZM114.86 8.29218H116.318C116.449 8.29218 116.577 8.25529 116.687 8.18591C116.797 8.11654 116.884 8.01761 116.939 7.90096L120.163 0.953585C120.182 0.911776 120.21 0.874338 120.245 0.843612C120.28 0.812885 120.321 0.789531 120.366 0.77501L122.688 0.0171291C122.739 0.000402883 122.793 -0.00415925 122.847 0.00381915C122.9 0.0117976 122.951 0.032088 122.995 0.0630181C123.039 0.0939483 123.074 0.134633 123.099 0.181719C123.123 0.228806 123.136 0.280946 123.136 0.333844V0.947529C123.136 1.05744 123.164 1.16566 123.217 1.26257C123.27 1.35947 123.346 1.44208 123.44 1.50305L125.485 2.83844C125.597 2.91158 125.729 2.95061 125.864 2.95062H129.387C129.445 2.95062 129.502 2.96502 129.553 2.99247C129.603 3.01991 129.646 3.05951 129.676 3.10752L131.816 6.45962L124.7 4.31567C124.615 4.28955 124.525 4.28025 124.435 4.28829C124.346 4.29633 124.259 4.32157 124.18 4.36255C124.1 4.40352 124.03 4.45944 123.973 4.52709C123.916 4.59473 123.873 4.67278 123.846 4.75675C123.82 4.84073 123.811 4.92897 123.819 5.01643C123.828 5.10389 123.854 5.18884 123.896 5.26641C123.938 5.34399 123.995 5.41265 124.065 5.46848C124.134 5.5243 124.214 5.56618 124.299 5.59172L125.182 5.85756V7.21174L122.831 8.3626C122.74 8.40717 122.661 8.47106 122.598 8.5496C122.536 8.62813 122.492 8.71933 122.47 8.81654C122.449 8.91374 122.449 9.01449 122.472 9.11143C122.495 9.20837 122.54 9.29904 122.604 9.37683L125.02 12.3342L123.933 13.9311C123.858 14.0407 123.818 14.1696 123.818 14.3014C123.818 14.4332 123.858 14.5621 123.933 14.6717L124.918 16.1193L121.859 18.1161L117.483 13.83L117.268 13.6879L112.614 11.7344L114.566 8.45783C114.596 8.40743 114.639 8.36561 114.69 8.33654C114.742 8.30747 114.8 8.29218 114.86 8.29218ZM109.926 24.8382C110.048 24.7428 110.133 24.6093 110.166 24.4601C110.2 24.311 110.18 24.155 110.11 24.0184L108.991 21.8268C108.966 21.7776 108.954 21.7231 108.955 21.6682C108.957 21.6133 108.972 21.5595 109 21.5118L111.456 17.3035C111.53 17.1763 111.559 17.0288 111.539 16.8836C111.519 16.7385 111.451 16.6037 111.346 16.5002L110.539 15.7106C110.486 15.6584 110.452 15.5905 110.442 15.5174C110.433 15.4442 110.448 15.37 110.486 15.3063L111.821 13.0651L113.646 17.2344C113.693 17.3422 113.768 17.4359 113.864 17.5063L115.962 19.0477L113.109 21.8417C112.997 21.951 112.928 22.0949 112.912 22.2488C112.897 22.4027 112.936 22.557 113.024 22.6855C113.112 22.8139 113.243 22.9085 113.394 22.9531C113.545 22.9977 113.708 22.9895 113.853 22.93L121.613 19.7635L123.336 21.4505C123.447 21.5596 123.594 21.6276 123.751 21.6428C123.908 21.658 124.065 21.6196 124.196 21.5339L125.799 20.4873L126.392 22.0346C126.412 22.0871 126.418 22.1437 126.41 22.1992C126.402 22.2547 126.38 22.3073 126.345 22.3522L124.8 24.3705L122.181 22.4475C122.063 22.3607 121.92 22.3138 121.772 22.3138H119.727C119.637 22.3138 119.548 22.3312 119.465 22.365L111.283 25.7038C111.133 25.7648 111.011 25.8761 110.937 26.0177C110.864 26.1593 110.844 26.3219 110.882 26.4762C110.92 26.6306 111.013 26.7667 111.144 26.8601C111.276 26.9535 111.436 26.998 111.598 26.9857L120.368 26.3252L126.042 27.4364C126.087 27.4453 126.13 27.463 126.168 27.4886C126.206 27.5142 126.238 27.5471 126.263 27.5852C126.288 27.6234 126.304 27.6661 126.311 27.7107C126.319 27.7553 126.317 27.8009 126.306 27.8447L126.013 28.9907H107.876L107.07 27.4133C107.036 27.3449 107.026 27.2669 107.042 27.1923C107.059 27.1177 107.101 27.051 107.162 27.0033L109.926 24.8382ZM124.413 25.7556L120.543 24.9976C120.499 24.9889 120.454 24.9845 120.409 24.9846C120.392 24.9846 120.374 24.9852 120.356 24.9865L115.732 25.3351L119.864 23.6492H121.546L124.413 25.7556ZM102.21 34.358L105.545 32.9969H128.455L131.79 34.358C131.863 34.3877 131.923 34.4411 131.96 34.5092C131.997 34.5774 132.009 34.6559 131.993 34.7316C131.978 34.8073 131.936 34.8754 131.875 34.9243C131.814 34.9733 131.738 35 131.659 35H102.341C102.262 35 102.186 34.9733 102.125 34.9243C102.064 34.8754 102.022 34.8073 102.007 34.7316C101.991 34.6559 102.003 34.5774 102.04 34.5092C102.077 34.4411 102.137 34.3877 102.21 34.358Z" fill="white"/>
</svg>
