<svg viewBox="0 0 60 60" xmlns="http://www.w3.org/2000/svg"><text font-family="MyriadPro-Regular, Myriad Pro" font-size="9" transform="translate(7.621 67.39)"></text><path d="M16.5 51h27l1.5 2H15Zm25.685-16.658-2.058 1.371-1.558-1.557 2.837-1.892ZM30.6 33.2l-3.787-2.84-1.91-4.456 4.526 1.94 5.808 5.807-5.956 2.482 1.426-1.426A1 1 0 0 0 30.6 33.2ZM26.86 18H29a1 1 0 0 0 .91-.586L34.64 7.01a.5.5 0 0 1 .296-.267l3.406-1.135A.5.5 0 0 1 39 6.08V7a1 1 0 0 0 .445.832l3 2A1 1 0 0 0 43 10h5.168a.5.5 0 0 1 .424.235l3.138 5.02-10.436-3.21a1 1 0 1 0-.588 1.91l1.294.399v2.028l-3.447 1.723a1 1 0 0 0-.334 1.52l3.544 4.429-1.595 2.391a1 1 0 0 0 0 1.11l1.445 2.168-4.486 2.99-6.419-6.419-.314-.213-6.827-2.926 2.862-4.907a.5.5 0 0 1 .432-.248Zm-7.236 24.78a1 1 0 0 0 .27-1.227l-1.642-3.282a.5.5 0 0 1 .014-.472l3.601-6.303a1 1 0 0 0-.161-1.203l-1.183-1.183a.5.5 0 0 1-.078-.605l1.958-3.357 2.676 6.245a1.003 1.003 0 0 0 .32.407l3.078 2.308-4.185 4.185a1 1 0 0 0 1.092 1.63l11.381-4.742 2.527 2.526a1 1 0 0 0 1.262.125l2.351-1.567.869 2.317a.5.5 0 0 1-.068.475L41.44 42.08 37.6 39.2a1.001 1.001 0 0 0-.601-.2H34a.998.998 0 0 0-.384.077l-12 5a1 1 0 0 0 .461 1.92l12.862-.99 8.322 1.665a.5.5 0 0 1 .387.612L43.22 49h-26.6l-1.182-2.363a.5.5 0 0 1 .135-.614Zm21.248 1.375-5.677-1.135A.984.984 0 0 0 35 43l-.077.003-6.782.522L34.2 41h2.466ZM8.308 57.038 13.2 55h33.6l4.892 2.038A.5.5 0 0 1 51.5 58h-43a.5.5 0 0 1-.192-.962Z" data-name="Layer 1" fill="#ffffff" class="fill-000000"></path></svg>