<?xml version="1.0" ?><svg viewBox="0 0 60 60" xmlns="http://www.w3.org/2000/svg"><title/><g data-name="Layer 1" id="Layer_1"><path d="M40.67969,25.94727A1,1,0,0,1,41,24h7c.86572,0,1.7998-.53516,1.7998-1.3999A1.60177,1.60177,0,0,0,48.2002,21H42.538c-1.1413-1.82593-.7691-2.23657.89661-3.895l.23193-.23145A4.31194,4.31194,0,0,0,44.978,13.30811a7.21355,7.21355,0,0,0-3.50391-4.999c-1.54-.92383-2.30078-1.89453-2.08789-2.6626a2.74741,2.74741,0,0,1,2.57324-1.48,1,1,0,0,0,0-2c-1.78613,0-3.9707,1.03271-4.501,2.94629-.27686.999-.25684,2.96533,2.94629,4.88574a5.318,5.318,0,0,1,2.583,3.50635,2.34306,2.34306,0,0,1-.73535,1.95459l-.22949.22852c-1.74792,1.7406-2.77588,2.96936-1.7428,5.312H36.54968c-1.15363-1.827-.82239-2.19647.86292-3.87354l.25391-.25293c1.06934-1.06934,1.95264-2.85889.08936-5.312a1.00012,1.00012,0,0,0-1.59277,1.21c1.10645,1.45605.626,2.15088.08936,2.688L36.002,15.709c-1.73669,1.72766-2.75543,2.94757-1.71252,5.291H30.51227c-1.12415-1.8147-.73456-2.24219.96576-3.93848l.18848-.188A4.31194,4.31194,0,0,0,32.978,13.30811a7.21355,7.21355,0,0,0-3.50391-4.999c-1.54-.92383-2.30078-1.89453-2.08789-2.6626a2.74741,2.74741,0,0,1,2.57324-1.48,1,1,0,0,0,0-2c-1.78613,0-3.9707,1.03271-4.501,2.94629-.27686.999-.25684,2.96533,2.94629,4.88574a5.318,5.318,0,0,1,2.583,3.50635,2.34306,2.34306,0,0,1-.73535,1.95459l-.18652.186C28.44061,17.2663,27.204,18.514,28.26855,21H24.538c-1.1413-1.82593-.7691-2.23657.89661-3.895l.23193-.23145c1.06934-1.06934,1.95264-2.85889.08936-5.312a1.00012,1.00012,0,1,0-1.59277,1.21c1.10645,1.45605.626,2.15088.08936,2.688l-.22949.22852c-1.74792,1.7406-2.77588,2.96936-1.7428,5.312H18.51227c-1.12415-1.8147-.73456-2.24219.96576-3.93848l.18848-.188A4.31194,4.31194,0,0,0,20.978,13.30811a7.21355,7.21355,0,0,0-3.50391-4.999c-1.54-.92383-2.30078-1.89453-2.08789-2.6626a2.74741,2.74741,0,0,1,2.57324-1.48,1,1,0,0,0,0-2c-1.78613,0-3.9707,1.03271-4.501,2.94629-.27686.999-.25684,2.96533,2.94629,4.88574a5.318,5.318,0,0,1,2.583,3.50635,2.34306,2.34306,0,0,1-.73535,1.95459l-.18652.186C16.44061,17.2663,15.204,18.514,16.26855,21H11.7998a1.60177,1.60177,0,0,0-1.59961,1.6001C10.2002,23.46484,11.13428,24,12,24h7a1,1,0,0,1,.33447,1.94238C11.27881,28.80273,5.8667,34.94775,5.8667,41.2334c0,4.64215,2.73071,8.84888,7.1333,11.88788V57a.88391.88391,0,0,0,.9668,1A.91211.91211,0,0,0,15,57V54.35345A31.21027,31.21027,0,0,0,30,58a31.21027,31.21027,0,0,0,15-3.64655V57a1,1,0,0,0,2,0V53.12128c4.40259-3.039,7.1333-7.24573,7.1333-11.88788C54.1333,34.7124,48.85254,28.71191,40.67969,25.94727Zm-21.61182,5.395a13.64476,13.64476,0,0,0-7.30273,5.6792,1,1,0,0,1-1.66406-1.10937,15.70378,15.70378,0,0,1,8.29785-6.45459,1,1,0,0,1,.66895,1.88477Z"/></g></svg>